<?xml version="1.0" encoding="UTF-8"?>
<svg xmlns="http://www.w3.org/2000/svg" xmlns:xlink="http://www.w3.org/1999/xlink" width="36px" height="29px" viewBox="0 0 36 29" version="1.1">
<g id="surface1">
<rect x="0" y="0" width="36" height="29" style="fill:rgb(100%,100%,100%);fill-opacity:1;stroke:none;"/>
<path style=" stroke:none;fill-rule:nonzero;fill:rgb(100%,64.705882%,0%);fill-opacity:1;" d="M 27.351562 11.671875 C 27.351562 7.511719 21.597656 4.140625 14.492188 4.140625 C 7.390625 4.140625 1.636719 7.511719 1.636719 11.671875 C 1.636719 14.058594 3.535156 16.191406 6.496094 17.574219 C 5.875 18.792969 5.070312 19.367188 4.359375 20.015625 C 4.15625 20.207031 3.917969 20.382812 3.992188 20.664062 C 4.046875 20.914062 4.304688 21.089844 4.578125 21.089844 C 4.59375 21.089844 4.613281 21.089844 4.632812 21.089844 C 5.179688 21.03125 5.710938 20.957031 6.203125 20.855469 C 8.046875 20.472656 9.761719 19.839844 11.277344 18.972656 C 12.300781 19.117188 13.378906 19.207031 14.492188 19.207031 C 21.597656 19.207031 27.351562 15.835938 27.351562 11.671875 Z M 34.363281 15.441406 C 34.363281 12.984375 32.355469 10.804688 29.269531 9.4375 C 29.542969 10.160156 29.6875 10.910156 29.6875 11.671875 C 29.6875 14.308594 28.007812 16.734375 24.957031 18.53125 C 22.128906 20.175781 18.421875 21.089844 14.492188 21.089844 C 13.964844 21.089844 13.414062 21.058594 12.886719 21.03125 C 15.167969 22.238281 18.199219 22.972656 21.507812 22.972656 C 22.621094 22.972656 23.699219 22.882812 24.722656 22.738281 C 26.238281 23.605469 27.953125 24.238281 29.796875 24.621094 C 30.289062 24.722656 30.820312 24.796875 31.367188 24.855469 C 31.660156 24.886719 31.933594 24.695312 32.007812 24.429688 C 32.082031 24.148438 31.84375 23.972656 31.640625 23.78125 C 30.929688 23.132812 30.125 22.5625 29.503906 21.339844 C 32.464844 19.957031 34.363281 17.839844 34.363281 15.441406 Z M 34.363281 15.441406 "/>
</g>
</svg>
